PathFileType	4	(X/Y/Z)	C:/Users/beibeiliu/ov580/test_trc\sequence.32_training_dense_right.trc
DataRate	CameraRate	NumFrames	NumMarkers	Units	OrigDataRate	OrigDataStartFrame	OrigNumFrames
120	120	16	19	mm	120	26	103
Frame#	Time	ThumbCMC			ThumbMCP			ThumbIP			ThumbTip			IndexMCP			IndexPIP			IndexTip			MiddleMCP			MiddlePIP			MiddleTip			RingMCP			RingPIP			RingTip			PinkyMCP			PinkyPIP			PinkyTip			BackHand1			BackHand2			BackHand3	
		X0	Y0	Z0	X1	Y1	Z1	X2	Y2	Z2	X3	Y3	Z3	X4	Y4	Z4	X5	Y5	Z5	X6	Y6	Z6	X7	Y7	Z7	X8	Y8	Z8	X9	Y9	Z9	X10	Y10	Z10	X11	Y11	Z11	X12	Y12	Z12	X13	Y13	Z13	X14	Y14	Z14	X15	Y15	Z15	X16	Y16	Z16	X17	Y17	Z17	X18	Y18	Z18	
25	0.208333	160.008	43.208	137.998	160.127	53.9221	117.572	168.4	64.7287	100.071	178.05	75.3404	80.4852	185.725	20.09	76.7529	193.189	19.5196	54.0208	207.222	14.4725	34.2158	174.936	-8.30921	66.1354	170.652	-12.1969	45.3251	168.937	-15.4559	12.3597	149.646	-22.2866	73.1791	128.673	-19.0571	54.5448	109.652	-12.1029	43.5317	137.27	-33.4019	87.1031	118.205	-25.3215	79.786	95.2254	-13.3213	70.4863	172.376	-22.1625	129.454	168.377	-15.852	158.025	177.197	12.2744	139.665	
26	0.216667	157.565	39.3205	138.348	158.955	51.4883	118.03	169.434	66.993	99.6468	178.578	78.8767	82.3943	185.555	20.962	77.2704	193.473	18.5691	56.1268	209.5	20.3078	35.7879	178.587	-6.70102	70.0922	175.841	-13.7559	42.5169	177.537	-20.6877	18.1742	156.43	-22.4725	68.872	139.803	-22.8609	49.1168	119.278	-24.2704	30.5216	139.017	-38.7423	84.9969	123.811	-30.0003	70.8063	103.954	-25.8193	57.6768	172.385	-19.615	125.816	166.463	-17.3531	156.179	177.634	12.3223	140.462	
27	0.225	157.319	42.4236	141.361	157.909	55.3547	119.665	170.151	68.1623	95.0366	175.472	81.5305	84.1962	185.513	18.7286	74.3615	192.464	21.3005	55.4418	209.533	20.8537	36.2785	178.035	-7.28839	68.1499	177.334	-14.6403	43.9682	181.945	-18.324	15.077	160.631	-27.0637	73.6497	149.774	-27.2415	48.6397	135.075	-34.5207	25.0909	145.966	-42.4957	84.9684	130.404	-45.9331	69.7726	116.439	-43.5522	45.2208	172.488	-20.816	124.433	168.468	-13.6852	158.332	177.201	11.92	135.303	
28	0.233333	156.21	41.0531	137.875	156.892	55.7038	115.782	163.451	68.5592	98.1201	170.396	84.2907	84.3255	184.785	21.6712	71.9039	190.301	22.6007	54.0491	207.063	19.7456	32.1208	177.032	-7.29117	66.4015	176.744	-11.1855	44.6333	182.847	-19.6718	17.0467	162.308	-26.734	69.9196	156.563	-33.0904	48.8916	150.119	-38.2107	25.0691	148.369	-43.5357	84.7735	138.805	-50.4084	65.8115	130.542	-60.8882	46.9909	171.279	-18.5267	125.778	166.392	-15.9245	156.841	176.119	14.3834	133.235	
29	0.241667	153.488	39.8129	139.508	149.836	55.9839	118.54	158.017	74.6877	97.8175	163.856	86.9483	81.3976	180.835	17.6812	69.4237	186.723	19.8873	51.9804	199.199	16.7967	32.1527	176.255	-9.61839	65.7215	176.857	-14.9759	42.476	185.296	-18.8266	15.6689	163.545	-27.8428	73.3476	162.903	-33.7991	47.8669	163.157	-39.764	23.3246	149.956	-43.5534	86.8749	144.241	-55.2805	66.0638	142.887	-68.5939	49.6592	168.806	-19.8069	123.424	165.733	-18.1316	155.433	173.011	15.1274	136.034	
30	0.25	152.568	41.8432	137.688	147.903	57.7652	118.333	150.982	73.3451	100.325	154.507	86.5032	85.7131	176.28	22.622	71.4766	180.977	17.9938	48.11	190.922	15.9746	29.329	175.518	-8.00713	68.1042	179.739	-14.2891	43.474	187.026	-21.5579	19.23	167.687	-27.5266	73.7986	170.481	-32.1737	51.5065	174.42	-44.2542	25.9609	153.707	-42.3849	87.5588	152.799	-52.9676	67.5506	156.524	-67.9343	52.595	167.307	-19.5783	124.964	165.452	-15.4816	152.779	172.561	14.5501	136.07	
31	0.258333	150.162	40.2035	140.092	146.718	56.5814	116.623	150.374	70.9328	99.2084	154.027	87.1065	84.1077	168.003	17.5421	71.4512	169.37	18.1687	44.8237	175.487	12.3622	22.7988	174.418	-8.84667	68.0324	177.429	-15.3801	46.1642	187.866	-19.3411	19.0741	168.824	-26.0914	75.1348	173.738	-34.606	54.3507	181.051	-39.1264	33.1161	155.845	-45.1936	92.1353	157.973	-53.9885	73.0761	167.047	-66.9038	54.8205	167.37	-17.2725	124.367	169.266	-12.2216	155.392	170.602	12.096	135.083	
32	0.266667	146.948	42.3849	142.55	144.429	56.2594	116.371	149.555	70.3821	95.7152	152.002	82.6347	80.7367	158.932	17.5971	70.2819	156.337	19.3968	41.4068	158.215	13.6875	22.0337	165.628	-7.20246	70.2904	169.808	-11.6469	44.0819	179.347	-22.1801	21.1212	162.894	-26.363	77.5222	168.511	-32.5243	56.2852	178.173	-42.7211	32.9593	152.313	-43.4346	94.2343	155.162	-57.7318	77.5011	166.559	-68.8195	56.6988	165.178	-19.7985	125.786	165.42	-16.4326	153.151	167.144	11.9302	130.744	
33	0.275	144.197	40.3551	140.851	140.887	55.859	120.985	144.477	69.0548	98.3156	149.859	82.8766	81.3186	153.64	20.667	65.5198	151.174	18.7197	44.0157	153.124	11.0667	21.1313	158.573	-10.3854	70.1039	162.335	-13.1184	44.515	170.3	-18.9798	21.6096	156.869	-29.1307	73.7378	161.166	-35.6569	55.7137	168.199	-44.9436	35.5698	147.634	-45.8477	92.0873	149.334	-57.2785	77.6043	163.109	-71.8638	61.5054	162.899	-18.6599	124.217	164.017	-13.7756	149.835	163.26	16.4574	132.634	
34	0.283333	143.829	38.3405	137.878	141.251	56.1584	117.321	142.738	65.8171	98.9076	148.579	84.0171	82.3123	153.243	15.4449	67.5773	154.545	20.5239	40.7855	158.411	14.4824	22.012	157.266	-6.43047	63.9454	158.261	-13.1354	43.8585	166.556	-21.8177	16.877	151.773	-27.1148	73.4604	153.389	-35.9765	55.4703	163.15	-42.9442	29.4758	141.797	-46.1029	90.5646	142.009	-58.8781	75.5061	153.698	-70.0332	60.9467	157.138	-21.1189	124.994	160.55	-14.6543	152.326	162	13.2845	128.995	
35	0.291667	145.817	37.7694	141.45	143.22	55.659	116.389	146.18	70.5825	98.8589	148.533	80.9016	81.5584	158.597	19.4101	65.8528	157.912	16.0502	45.5692	165.619	16.186	23.9749	159.003	-9.98059	63.3333	160.02	-15.6601	42.1017	166.086	-25.4305	18.7377	150.468	-30.8234	74.8934	153.266	-35.169	50.6608	159.906	-47.3252	28.4918	141.182	-47.3623	87.7828	138.229	-56.1434	75.9329	147.603	-72.7812	59.778	160.086	-19.1558	123.221	161.43	-16.4274	154.362	164.579	9.12729	130.747	
36	0.3	147.953	36.7981	137.285	142.569	52.9438	119.577	148.555	69.7673	94.7765	150.762	82.7655	82.0843	160.688	13.7193	67.407	162.76	17.6761	45.6768	169.129	10.9164	25.082	160.108	-8.57818	63.4517	159.927	-16.9361	43.0668	168.824	-23.3325	15.8332	151.228	-30.2131	74.3163	152.395	-38.3383	49.5932	157.56	-46.6943	27.0053	139.352	-48.9169	92.1312	139.087	-63.05	72.1137	145.979	-71.873	61.0654	158.225	-20.8329	123.25	162.276	-17.141	148.854	165.431	9.09353	133.463	
37	0.308333	149.364	34.8862	142.135	146.526	53.9	121.181	151.732	69.6351	95.6244	153.986	81.9391	81.7421	162.877	12.8656	69.9612	165.787	12.454	47.4549	174.803	13.8034	24.9415	163.489	-13.4822	65.708	163.503	-21.9493	43.6617	170.045	-29.6686	17.2967	155.188	-32.9657	75.7893	155.417	-40.5977	50.2451	158.969	-46.7877	29.2643	141.621	-52.4997	91.1385	140.333	-64.2064	72.8225	147.284	-76.0468	56.831	162.622	-24.1933	125.907	164.791	-22.8047	150.862	168.213	6.7007	129.455	
38	0.316667	151.76	35.529	143.212	148.007	52.1047	121.527	153.289	67.479	97.2587	154.331	79.9747	85.1249	165.365	13.0064	66.8855	168.242	15.5248	45.5437	175.361	11.8023	23.0983	164.123	-16.1677	68.1494	165.243	-18.7814	44.6826	172.639	-26.3585	17.0885	156.849	-32.0689	72.4497	156.897	-41.4761	55.1352	160.413	-47.006	29.5758	143.611	-50.4827	92.9296	140.378	-63.0019	77.9313	145.939	-75.4046	59.4923	162.113	-23.6283	126.18	165.748	-19.755	151.061	171.162	5.70271	131.539	
39	0.325	152.994	39.3361	142.959	149.283	51.8376	117.654	152.289	64.1352	96.6489	154.002	78.864	84.5157	164.474	15.8574	72.9135	167.939	17.5093	48.9068	175.358	14.3334	25.1906	165.563	-12.0355	65.5694	165.839	-20.3407	42.4275	171.236	-28.9894	17.4412	155.894	-34.6521	72.5003	156.635	-39.8001	52.5882	159.635	-47.4341	27.663	144.452	-48.0572	90.4991	141.196	-63.4618	74.9447	144.983	-78.3239	57.1475	161.837	-26.4242	125.63	163.712	-22.4081	154.986	171.393	7.41982	131.662	
40	0.333333	154.311	37.4709	140.411	148.154	51.073	120.419	151.718	66.0739	99.1938	154.992	77.6727	82.3039	166.404	14.9063	72.2541	167.602	12.7895	48.3854	175.784	9.8668	22.5815	164.558	-16.4905	68.8764	164.526	-19.2541	46.5009	171.533	-28.8895	19.2046	154.176	-35.2816	77.5504	155.456	-40.666	53.8753	158.641	-50.5105	31.8421	142.669	-52.618	93.2391	139.838	-65.2995	76.0094	143.998	-80.074	60.1999	162.32	-24.4739	125.026	165.986	-22.6036	154.228	169.185	4.11296	133.57	
